<svg width="188" height="55" viewBox="0 0 188 55" fill="none" xmlns="http://www.w3.org/2000/svg">
<g clip-path="url(#clip0_250_13324)">
<path fill-rule="evenodd" clip-rule="evenodd" d="M116.417 43.0119C105.55 50.8293 89.7988 55.0002 76.2376 55.0002C57.2226 55.0002 40.1042 48.1361 27.1535 36.7198C26.136 35.8221 27.0476 34.5987 28.2686 35.2978C42.245 43.2344 59.5262 48.009 77.3772 48.009C89.4163 48.009 102.66 45.578 114.837 40.5332C116.677 39.7705 118.216 41.709 116.417 43.0119Z" fill="#FF9900"/>
<path fill-rule="evenodd" clip-rule="evenodd" d="M120.937 37.9666C119.553 36.2346 111.755 37.1483 108.255 37.5534C107.188 37.6805 107.025 36.7749 107.986 36.1234C114.197 31.8572 124.388 33.0886 125.576 34.5186C126.765 35.9566 125.267 45.927 119.431 50.6857C118.535 51.4166 117.681 51.0274 118.079 50.0581C119.39 46.8644 122.329 39.7064 120.937 37.9666Z" fill="#FF9900"/>
<path fill-rule="evenodd" clip-rule="evenodd" d="M108.497 6.00627V1.85922C108.497 1.23161 108.985 0.810547 109.571 0.810547H128.594C129.205 0.810547 129.693 1.23955 129.693 1.85922V5.41043C129.685 6.00627 129.172 6.78483 128.261 8.01623L118.403 21.7523C122.066 21.6649 125.933 22.1972 129.254 24.0245C130.003 24.4376 130.206 25.0414 130.263 25.6372V30.0623C130.263 30.6661 129.579 31.3731 128.863 31.0077C123.01 28.0126 115.237 27.6869 108.765 31.0395C108.106 31.389 107.414 30.6899 107.414 30.0861V25.8835C107.414 25.2082 107.422 24.0562 108.114 23.0314L119.535 7.047H109.596C108.985 7.047 108.497 6.62594 108.497 6.00627Z" fill="black"/>
<path fill-rule="evenodd" clip-rule="evenodd" d="M39.1026 31.8816H33.315C32.7615 31.8419 32.322 31.4368 32.2812 30.9204V1.93079C32.2812 1.35084 32.7778 0.890051 33.3964 0.890051H38.7932C39.3549 0.913868 39.8026 1.33494 39.8433 1.85928V5.64883H39.9491C41.3573 1.98639 44.0028 0.27832 47.5682 0.27832C51.1904 0.27832 53.4534 1.98639 55.0814 5.64883C56.4814 1.98639 59.6642 0.27832 63.0748 0.27832C65.5005 0.27832 68.1542 1.2555 69.774 3.44819C71.6055 5.88716 71.2311 9.43041 71.2311 12.5367L71.223 30.833C71.223 31.4129 70.7264 31.8816 70.1078 31.8816H64.3284C63.7505 31.8419 63.2865 31.3891 63.2865 30.833V15.4683C63.2865 14.2448 63.4004 11.1941 63.1237 10.0342C62.6923 8.08779 61.398 7.53962 59.7212 7.53962C58.3211 7.53962 56.8559 8.45324 56.2617 9.91503C55.6674 11.3768 55.7244 13.8237 55.7244 15.4683V30.833C55.7244 31.4129 55.2279 31.8816 54.6092 31.8816H48.8299C48.2438 31.8419 47.7879 31.3891 47.7879 30.833L47.7798 15.4683C47.7798 12.2348 48.3252 7.47606 44.2145 7.47606C40.0549 7.47606 40.2177 12.1157 40.2177 15.4683V30.833C40.2177 31.4129 39.7212 31.8816 39.1026 31.8816" fill="black"/>
<path fill-rule="evenodd" clip-rule="evenodd" d="M146.071 0.27832C154.659 0.27832 159.306 7.47606 159.306 16.6282C159.306 25.4704 154.17 32.4854 146.071 32.4854C137.638 32.4854 133.047 25.2877 133.047 16.3183C133.047 7.29334 137.695 0.27832 146.071 0.27832ZM146.12 6.197C141.854 6.197 141.586 11.8694 141.586 15.4047C141.586 18.948 141.529 26.5111 146.071 26.5111C150.556 26.5111 150.768 20.4098 150.768 16.6917C150.768 14.2448 150.662 11.3212 149.905 9.00141C149.254 6.9835 147.959 6.197 146.12 6.197Z" fill="black"/>
<path fill-rule="evenodd" clip-rule="evenodd" d="M170.442 31.8816H164.679C164.101 31.8419 163.637 31.3891 163.637 30.833L163.629 1.83545C163.678 1.30316 164.158 0.890051 164.744 0.890051H170.108C170.613 0.913868 171.028 1.24755 171.142 1.70039V6.13344H171.248C172.868 2.16912 175.139 0.27832 179.136 0.27832C181.732 0.27832 184.264 1.19194 185.892 3.69447C187.406 6.01427 187.406 9.91503 187.406 12.7194V30.968C187.341 31.4765 186.86 31.8816 186.291 31.8816H180.487C179.958 31.8419 179.518 31.4606 179.461 30.968V15.222C179.461 12.0521 179.836 7.4125 175.839 7.4125C174.431 7.4125 173.136 8.33407 172.493 9.73231C171.679 11.5039 171.574 13.2676 171.574 15.222V30.833C171.565 31.4129 171.061 31.8816 170.442 31.8816" fill="black"/>
<path fill-rule="evenodd" clip-rule="evenodd" d="M93.3306 18.0341C93.3306 20.2347 93.3876 22.0699 92.248 24.0242C91.3282 25.6132 89.863 26.5903 88.2431 26.5903C86.0209 26.5903 84.7185 24.9379 84.7185 22.4989C84.7185 17.6845 89.1385 16.8106 93.3306 16.8106V18.0341ZM99.167 31.8019C98.7844 32.1356 98.2309 32.1594 97.7995 31.937C95.8784 30.3799 95.5284 29.6569 94.4784 28.1713C91.3038 31.3332 89.049 32.2786 84.9383 32.2786C80.0624 32.2786 76.2773 29.3471 76.2773 23.4761C76.2773 18.8921 78.817 15.7699 82.4475 14.2445C85.5895 12.894 89.9769 12.6556 93.3306 12.2822V11.5513C93.3306 10.2087 93.4364 8.61981 92.6224 7.45991C91.9224 6.41918 90.5712 5.99017 89.3746 5.99017C87.1686 5.99017 85.2069 7.09446 84.7267 9.38249C84.629 9.89094 84.2464 10.3914 83.7173 10.4153L78.1088 9.82738C77.6367 9.7241 77.1076 9.35071 77.246 8.64365C78.5321 2.00203 84.686 0 90.1886 0C93.005 0 96.6843 0.730898 98.9065 2.81236C101.723 5.37844 101.454 8.80254 101.454 12.5285V21.3311C101.454 23.9766 102.578 25.1365 103.636 26.5665C104.002 27.0749 104.084 27.6867 103.611 28.068C102.431 29.0293 100.331 30.8168 99.1751 31.8178L99.167 31.8019" fill="black"/>
<path fill-rule="evenodd" clip-rule="evenodd" d="M17.4595 18.0341C17.4595 20.2347 17.5165 22.0699 16.3769 24.0242C15.4571 25.6132 14 26.5903 12.372 26.5903C10.1498 26.5903 8.85556 24.9379 8.85556 22.4989C8.85556 17.6845 13.2756 16.8106 17.4595 16.8106V18.0341ZM23.2959 31.8019C22.9133 32.1356 22.3598 32.1594 21.9284 31.937C20.0073 30.3799 19.6655 29.6569 18.6073 28.1713C15.4327 31.3332 13.186 32.2786 9.0672 32.2786C4.19948 32.2786 0.40625 29.3471 0.40625 23.4761C0.40625 18.8921 2.95407 15.7699 6.57636 14.2445C9.7184 12.894 14.1059 12.6556 17.4595 12.2822V11.5513C17.4595 10.2087 17.5653 8.61981 16.7595 7.45991C16.0513 6.41918 14.7001 5.99017 13.5116 5.99017C11.3057 5.99017 9.33582 7.09446 8.85556 9.38249C8.75788 9.89094 8.3753 10.3914 7.85434 10.4153L2.23775 9.82738C1.76563 9.7241 1.24467 9.35071 1.37491 8.64365C2.66917 2.00203 8.81486 0 14.3175 0C17.1339 0 20.8132 0.730898 23.0354 2.81236C25.8519 5.37844 25.5832 8.80254 25.5832 12.5285V21.3311C25.5832 23.9766 26.7066 25.1365 27.7648 26.5665C28.1392 27.0749 28.2206 27.6867 27.7485 28.068C26.5682 29.0293 24.4681 30.8168 23.3122 31.8178L23.2959 31.8019" fill="black"/>
</g>
<defs>
<clipPath id="clip0_250_13324">
<rect width="187" height="55" fill="white" transform="translate(0.40625)"/>
</clipPath>
</defs>
</svg>
