<svg width="18" height="16" viewBox="0 0 18 16" fill="none" xmlns="http://www.w3.org/2000/svg">
<path d="M9 4.25C9 3.45435 8.68393 2.69129 8.12132 2.12868C7.55871 1.56607 6.79565 1.25 6 1.25H1.5V12.5H6.75C7.34674 12.5 7.91903 12.7371 8.34099 13.159C8.76295 13.581 9 14.1533 9 14.75M9 4.25V14.75M9 4.25C9 3.45435 9.31607 2.69129 9.87868 2.12868C10.4413 1.56607 11.2044 1.25 12 1.25H16.5V12.5H11.25C10.6533 12.5 10.081 12.7371 9.65901 13.159C9.23705 13.581 9 14.1533 9 14.75" stroke="#848B95" stroke-width="1.5" stroke-linecap="round" stroke-linejoin="round"/>
</svg>
