<svg width="90" height="90" viewBox="0 0 90 90" fill="none" xmlns="http://www.w3.org/2000/svg">
<circle cx="45" cy="45" r="45" fill="white"/>
<path d="M63.1888 33.1971C62.7538 32.3387 62.0702 31.235 61.0137 30.3766C60.5787 29.9474 60.0194 29.6409 59.2736 29.5182C58.7143 29.3956 58.155 29.2117 57.5335 29.2117H57.4092C56.6635 29.2117 55.2341 29.3343 54.4262 30.4993C53.9912 30.9285 53.8669 31.6029 53.9912 32.3387C54.1155 32.8905 54.4262 33.3197 54.9855 33.4423C54.9855 33.4423 55.1098 33.4423 55.4206 33.565C55.2963 33.565 55.1098 33.8715 55.1098 33.8715C54.7991 34.3007 54.1155 34.9752 52.1268 34.9752H52.0025C51.0082 34.9752 50.1381 34.6686 49.1438 33.4423C48.5845 32.5839 48.1495 31.2964 48.1495 29.0891C48.1495 27.9854 48.0252 26.9431 47.7144 26.2686C47.5901 25.7168 47.1551 25.2876 46.7201 24.981C46.4094 24.6745 45.9743 24.5518 45.415 24.4292C44.8557 24 43.9857 24 43.302 24C42.432 24 41.997 24.1226 41.7484 24.5518C41.7484 24.5518 41.7484 24.6745 41.6241 24.6745H41.0648C40.6298 24.6745 40.1947 24.7971 39.7597 24.7971C38.8897 24.9197 38.4546 25.2263 37.8953 25.6555C37.771 25.7781 37.336 26.2073 37.1496 26.7591C37.0253 27.1883 37.1496 27.4949 37.2739 27.6175C37.2739 27.6175 37.2739 27.7401 37.3982 27.7401C37.7089 27.4336 38.1439 27.3109 38.8275 27.3109C39.6976 27.3109 41.0026 27.7401 41.3755 28.4146C41.9348 29.3956 41.8105 30.1314 41.6862 31.1124C41.3755 33.5036 40.3812 34.7912 38.5168 35.0365H37.5225C36.0931 35.0365 35.0988 34.6073 34.6637 33.7489C34.353 33.4423 34.353 33.3197 34.353 33.3197C34.353 33.3197 34.4773 33.3197 34.6637 33.1971C35.223 32.8905 35.5338 32.6453 35.6581 32.0934C35.7824 31.5416 35.6581 30.8058 35.223 30.254C34.4773 29.5182 33.483 29.1504 32.24 29.1504C31.4943 29.1504 30.935 29.273 30.4999 29.4569C28.7598 29.8861 27.5169 30.9898 26.5226 33.1358C25.7768 34.546 25.2175 36.508 25.0932 38.4701C24.9689 40.4321 24.9689 42.1489 25.0932 43.6818C25.404 46.1956 25.839 47.7898 26.3983 49.3226C26.9576 51.0394 27.8277 52.5723 28.6977 53.9825C29.0084 54.5343 29.1327 54.8409 29.257 54.9635C29.3813 54.8409 29.5677 54.6569 29.692 54.4117C30.0028 54.1051 30.9971 52.8788 31.2457 52.4496C31.6807 52.1431 32.1157 51.346 32.3643 50.7328L32.4886 50.4263L32.7993 50.7328C33.1101 51.0394 33.2344 51.2847 33.2344 51.7139C33.2344 52.1431 33.1101 52.5723 32.9236 53.4307C32.6129 54.2891 32.1779 55.3927 31.6186 56.2511C31.6186 56.3737 31.4943 56.5577 31.4943 56.5577C31.1835 57.1095 31.0593 57.4161 31.1835 57.5387C31.3078 57.5387 31.7429 57.4161 32.1779 56.9869C32.7372 56.7416 33.7315 55.8832 34.9745 54.0438C35.9688 52.7562 36.7146 51.346 37.3982 49.8131L37.5225 49.5066L37.8332 49.6292C37.9575 49.6292 38.1439 49.7518 38.1439 49.9358C38.2682 50.2423 38.2682 50.4876 38.2682 50.9168C38.1439 51.8978 37.5225 53.308 37.1496 54.2891C36.4038 56.0058 34.9745 57.9679 33.9801 59.3781C33.9801 59.3781 33.6694 59.6847 33.6694 59.8073C33.7937 59.9299 33.9801 60.1139 34.2287 60.2365L34.6637 60.5431C36.0931 61.6467 37.3982 62.6891 39.0761 63.4861C40.3812 64.2219 43.0535 65.6321 44.7936 66C46.5337 65.5708 49.2059 64.1606 50.511 63.4861C52.2511 62.5051 53.494 61.6467 54.9234 60.5431L55.3584 60.2365C55.6691 60.1139 55.7934 59.8073 55.9177 59.8073C55.9177 59.8073 55.7934 59.6847 55.7934 59.5007L55.6691 59.3781C54.6748 57.9679 53.2454 56.0058 52.4997 54.2891C52.0647 53.308 51.5053 51.7752 51.3811 50.9168C51.3811 50.4876 51.3811 50.181 51.5053 49.9358C51.5053 49.8131 51.6296 49.8131 51.8161 49.6292C51.9404 49.5066 52.1268 49.5066 52.1268 49.5066L52.2511 49.8131C52.9969 51.346 53.8048 52.6336 54.6748 54.0438C55.9799 55.8832 56.9742 56.7416 57.4092 56.9869C57.8443 57.2934 58.2793 57.5387 58.4036 57.5387H58.59C58.7143 57.4161 58.59 57.1095 58.2793 56.5577C58.2793 56.435 58.155 56.2511 58.155 56.2511C57.5957 55.2701 57.1606 54.2891 56.8499 53.4307C56.5392 52.5723 56.4149 52.1431 56.4149 51.7139C56.4149 51.2847 56.5392 50.8555 56.8499 50.7328L57.1606 50.6102L57.2849 50.9168C57.5957 51.4686 58.155 52.327 58.2793 52.6336C58.59 53.0628 59.5843 54.1664 59.8329 54.5956L60.268 55.0248C60.3923 54.9022 60.5787 54.5956 60.8273 54.1664V54.0438C61.6973 52.6336 62.3809 51.1007 63.1267 49.3839C63.686 47.6672 64.121 46.2569 64.4318 43.7431C64.556 42.2102 64.7425 40.4934 64.4318 38.5314C64.4318 36.5693 64.0589 34.6073 63.1888 33.1971Z" fill="url(#paint0_radial_310_8437)"/>
<defs>
<radialGradient id="paint0_radial_310_8437" cx="0" cy="0" r="1" gradientUnits="userSpaceOnUse" gradientTransform="translate(26.1169 31.5766) scale(43.7032 43.1179)">
<stop stop-color="#20C4F4"/>
<stop offset="0.304" stop-color="#09B4F0"/>
<stop offset="0.5" stop-color="#00AEEF"/>
<stop offset="0.8" stop-color="#0092C8"/>
<stop offset="1" stop-color="#006E98"/>
</radialGradient>
</defs>
</svg>
