<svg width="11" height="13" viewBox="0 0 11 13" fill="none" xmlns="http://www.w3.org/2000/svg">
<path d="M0.566406 3.36435H1.61186M1.61186 3.36435H9.9755M1.61186 3.36435V10.6825C1.61186 10.9598 1.72201 11.2257 1.91807 11.4218C2.11413 11.6178 2.38004 11.728 2.65732 11.728H7.88459C8.16186 11.728 8.42778 11.6178 8.62384 11.4218C8.8199 11.2257 8.93004 10.9598 8.93004 10.6825V3.36435H1.61186ZM3.18004 3.36435V2.31889C3.18004 2.04162 3.29019 1.7757 3.48625 1.57964C3.68231 1.38358 3.94823 1.27344 4.2255 1.27344H6.31641C6.59368 1.27344 6.85959 1.38358 7.05565 1.57964C7.25172 1.7757 7.36186 2.04162 7.36186 2.31889V3.36435M4.2255 5.97798V9.11435M6.31641 5.97798V9.11435" stroke="white" stroke-width="1.04545" stroke-linecap="round" stroke-linejoin="round"/>
</svg>
