<svg width="17" height="17" viewBox="0 0 17 17" fill="none" xmlns="http://www.w3.org/2000/svg">
<path d="M8.5 0.1875C6.30362 0.213999 4.20466 1.09829 2.65147 2.65147C1.09829 4.20466 0.213999 6.30362 0.1875 8.5C0.213999 10.6964 1.09829 12.7953 2.65147 14.3485C4.20466 15.9017 6.30362 16.786 8.5 16.8125C10.6964 16.786 12.7953 15.9017 14.3485 14.3485C15.9017 12.7953 16.786 10.6964 16.8125 8.5C16.786 6.30362 15.9017 4.20466 14.3485 2.65147C12.7953 1.09829 10.6964 0.213999 8.5 0.1875ZM13.25 9.09375H9.09375V13.25H7.90625V9.09375H3.75V7.90625H7.90625V3.75H9.09375V7.90625H13.25V9.09375Z" fill="white"/>
</svg>
