<svg width="16" height="16" viewBox="0 0 16 16" fill="none" xmlns="http://www.w3.org/2000/svg">
<path d="M8 0.5C12.1422 0.5 15.5 3.8585 15.5 8C15.5 12.1415 12.1422 15.5 8 15.5C3.85775 15.5 0.5 12.1415 0.5 8C0.5 3.8585 3.85775 0.5 8 0.5ZM8 1.75025C4.55375 1.75025 1.75025 4.55375 1.75025 8C1.75025 11.4462 4.55375 14.2497 8 14.2497C11.4462 14.2497 14.2497 11.4462 14.2497 8C14.2497 4.55375 11.4462 1.75025 8 1.75025ZM7.4375 3.5C7.57343 3.50001 7.70476 3.54923 7.8072 3.63858C7.90964 3.72792 7.97626 3.85133 7.99475 3.986L8 4.0625V8H10.4375C10.58 8.00004 10.7172 8.05418 10.8213 8.15148C10.9255 8.24878 10.9888 8.38197 10.9985 8.52416C11.0082 8.66635 10.9636 8.80692 10.8737 8.91747C10.7837 9.02803 10.6552 9.10032 10.514 9.11975L10.4375 9.125H7.4375C7.30157 9.12499 7.17024 9.07577 7.0678 8.98642C6.96536 8.89708 6.89874 8.77366 6.88025 8.639L6.875 8.5625V4.0625C6.875 3.91332 6.93426 3.77024 7.03975 3.66475C7.14524 3.55926 7.28832 3.5 7.4375 3.5Z" fill="#BAC8CC"/>
</svg>
