<svg width="15" height="11" viewBox="0 0 15 11" fill="none" xmlns="http://www.w3.org/2000/svg">
<path d="M9.32415 0.615234H14.2804C14.4539 0.615257 14.6213 0.678953 14.751 0.794241C14.8806 0.909529 14.9634 1.06839 14.9837 1.24069L14.9887 1.32357V6.2819C14.9901 6.46354 14.9217 6.63879 14.7976 6.77144C14.6735 6.90408 14.5032 6.98398 14.3219 6.99462C14.1405 7.00526 13.962 6.94583 13.8233 6.82861C13.6845 6.71139 13.5961 6.54534 13.5763 6.36478L13.572 6.2819L13.5713 3.03348L8.40615 8.19936C8.28427 8.32142 8.12204 8.39482 7.9499 8.40577C7.77775 8.41673 7.60752 8.36449 7.47115 8.25886L7.40457 8.20007L5.77824 6.57657L2.03257 10.3237C1.9051 10.4507 1.73405 10.5244 1.55417 10.5299C1.37429 10.5354 1.19907 10.4722 1.06408 10.3532C0.929097 10.2342 0.844479 10.0683 0.827413 9.88911C0.810346 9.70995 0.862112 9.53102 0.972195 9.38865L1.03099 9.32136L5.27674 5.07419C5.39862 4.95213 5.56085 4.87874 5.73299 4.86778C5.90514 4.85683 6.07537 4.90906 6.21174 5.01469L6.27832 5.07348L7.90465 6.69699L12.569 2.0319H9.32415C9.15066 2.03188 8.98321 1.96818 8.85356 1.85289C8.72391 1.73761 8.64108 1.57875 8.62078 1.40644L8.61582 1.32357C8.61584 1.15007 8.67954 0.982621 8.79483 0.852971C8.91011 0.723321 9.06898 0.640492 9.24128 0.620193L9.32415 0.615234H14.2804H9.32415Z" fill="#B1B8CF"/>
</svg>
