<svg width="8" height="8" viewBox="0 0 8 8" fill="none" xmlns="http://www.w3.org/2000/svg">
<path d="M3.37612 1.6413H1.06014C0.884648 1.6413 0.716341 1.71101 0.592247 1.83511C0.468153 1.9592 0.398438 2.12751 0.398438 2.30301V6.93495C0.398438 7.11045 0.468153 7.27875 0.592247 7.40285C0.716341 7.52694 0.884648 7.59666 1.06014 7.59666H5.69209C5.86758 7.59666 6.03589 7.52694 6.15999 7.40285C6.28408 7.27875 6.35379 7.11045 6.35379 6.93495V4.61898M5.85752 1.14502C5.98914 1.0134 6.16765 0.939453 6.35379 0.939453C6.53994 0.939453 6.71845 1.0134 6.85007 1.14502C6.9817 1.27664 7.05564 1.45516 7.05564 1.6413C7.05564 1.82744 6.9817 2.00596 6.85007 2.13758L3.70697 5.28068L2.38356 5.61154L2.71441 4.28812L5.85752 1.14502Z" stroke="#3B5165" stroke-width="0.680612" stroke-linecap="round" stroke-linejoin="round"/>
</svg>
