<svg width="16" height="16" viewBox="0 0 16 16" fill="none" xmlns="http://www.w3.org/2000/svg">
<path d="M3.5 1.25V10.25M3.5 10.25C2.25736 10.25 1.25 11.2574 1.25 12.5C1.25 13.7426 2.25736 14.75 3.5 14.75C4.74264 14.75 5.75 13.7426 5.75 12.5M3.5 10.25C4.74264 10.25 5.75 11.2574 5.75 12.5M12.5 5.75C13.7426 5.75 14.75 4.74264 14.75 3.5C14.75 2.25736 13.7426 1.25 12.5 1.25C11.2574 1.25 10.25 2.25736 10.25 3.5C10.25 4.74264 11.2574 5.75 12.5 5.75ZM12.5 5.75C12.5 7.54021 11.7888 9.2571 10.523 10.523C9.2571 11.7888 7.54021 12.5 5.75 12.5" stroke="#848B95" stroke-width="1.5" stroke-linecap="round" stroke-linejoin="round"/>
</svg>
