<svg width="12" height="13" viewBox="0 0 12 13" fill="none" xmlns="http://www.w3.org/2000/svg">
<path d="M8.88778 1.79632C9.02508 1.65903 9.18806 1.55013 9.36744 1.47582C9.54682 1.40152 9.73908 1.36328 9.93324 1.36328C10.1274 1.36328 10.3197 1.40152 10.499 1.47582C10.6784 1.55013 10.8414 1.65903 10.9787 1.79632C11.116 1.93361 11.2249 2.0966 11.2992 2.27598C11.3735 2.45536 11.4117 2.64762 11.4117 2.84178C11.4117 3.03594 11.3735 3.22819 11.2992 3.40757C11.2249 3.58695 11.116 3.74994 10.9787 3.88723L3.92188 10.9441L1.04688 11.7281L1.83097 8.85314L8.88778 1.79632Z" stroke="white" stroke-width="1.04545" stroke-linecap="round" stroke-linejoin="round"/>
</svg>
