<svg width="21" height="21" viewBox="0 0 21 21" fill="none" xmlns="http://www.w3.org/2000/svg">
<g clip-path="url(#clip0_310_8467)">
<path d="M18.738 5.83301H2.26464C1.97378 5.83301 1.69484 5.94855 1.48917 6.15421C1.28351 6.35988 1.16797 6.63882 1.16797 6.92967V17.5697C1.16797 17.8605 1.28351 18.1395 1.48917 18.3451C1.69484 18.5508 1.97378 18.6663 2.26464 18.6663H18.738C19.0288 18.6663 19.3078 18.5508 19.5134 18.3451C19.7191 18.1395 19.8346 17.8605 19.8346 17.5697V6.92967C19.8346 6.63882 19.7191 6.35988 19.5134 6.15421C19.3078 5.94855 19.0288 5.83301 18.738 5.83301V5.83301ZM18.668 17.4997H2.33464V6.99967H18.668V17.4997Z" fill="#5D7582"/>
<path d="M17.582 1.75033C17.582 1.59562 17.5206 1.44724 17.4112 1.33785C17.3018 1.22845 17.1534 1.16699 16.9987 1.16699H4.16536C4.01065 1.16699 3.86228 1.22845 3.75289 1.33785C3.64349 1.44724 3.58203 1.59562 3.58203 1.75033V2.33366H17.582V1.75033Z" fill="#5D7582"/>
<path d="M18.7357 4.08333C18.7357 3.92862 18.6742 3.78025 18.5648 3.67085C18.4554 3.56146 18.3071 3.5 18.1523 3.5H2.98568C2.83097 3.5 2.68259 3.56146 2.5732 3.67085C2.4638 3.78025 2.40234 3.92862 2.40234 4.08333V4.66667H18.7357V4.08333Z" fill="#5D7582"/>
<path d="M7.48042 15.6282C7.64208 15.733 7.83025 15.7896 8.02292 15.7915C8.16177 15.7912 8.29896 15.7613 8.42542 15.704L14.1246 13.1607C14.3008 13.0841 14.4507 12.9578 14.5561 12.7971C14.6614 12.6365 14.7175 12.4486 14.7175 12.2565C14.7175 12.0644 14.6614 11.8765 14.5561 11.7159C14.4507 11.5552 14.3008 11.4289 14.1246 11.3523L8.42542 8.80899C8.2746 8.74201 8.10946 8.71373 7.94495 8.7267C7.78044 8.73968 7.62177 8.7935 7.48332 8.88329C7.34487 8.97308 7.23102 9.096 7.15208 9.24091C7.07314 9.38582 7.03161 9.54814 7.03125 9.71316V14.7998C7.03155 14.9643 7.07276 15.1261 7.15116 15.2707C7.22957 15.4153 7.34272 15.5382 7.48042 15.6282V15.6282ZM7.84792 9.71316C7.84773 9.68386 7.85517 9.65502 7.86948 9.62945C7.8838 9.60389 7.90451 9.58248 7.92958 9.56732C7.96012 9.55888 7.99238 9.55888 8.02292 9.56732C8.04595 9.56207 8.06988 9.56207 8.09292 9.56732L13.7921 12.1048C13.8242 12.118 13.8516 12.1407 13.8704 12.1699C13.8891 12.1991 13.8985 12.2334 13.8971 12.2682C13.8981 12.3021 13.8885 12.3354 13.8697 12.3637C13.8509 12.3919 13.8238 12.4136 13.7921 12.4257L8.09292 14.969C8.06809 14.9833 8.03992 14.9909 8.01125 14.9909C7.98258 14.9909 7.95441 14.9833 7.92958 14.969C7.90524 14.953 7.88511 14.9315 7.87089 14.9061C7.85667 14.8807 7.84879 14.8522 7.84792 14.8232V9.71316Z" fill="#5D7582"/>
</g>
<defs>
<clipPath id="clip0_310_8467">
<rect width="21" height="21" fill="white"/>
</clipPath>
</defs>
</svg>
