<svg width="44" height="48" viewBox="0 0 44 48" fill="none" xmlns="http://www.w3.org/2000/svg">
<path d="M2.5625 47.2497C2.04864 47.2497 1.55583 47.0455 1.19248 46.6822C0.829129 46.3188 0.625 45.826 0.625 45.3122V2.68717C0.625058 2.35049 0.712848 2.01963 0.879717 1.72721C1.04659 1.4348 1.28678 1.19091 1.57661 1.01959C1.86644 0.848271 2.19592 0.755434 2.53256 0.750231C2.8692 0.745028 3.20138 0.827639 3.49637 0.989919L42.2464 22.3024C42.5502 22.4697 42.8035 22.7154 42.9799 23.0139C43.1563 23.3125 43.2494 23.6529 43.2494 23.9997C43.2494 24.3464 43.1563 24.6869 42.9799 24.9854C42.8035 25.2839 42.5502 25.5297 42.2464 25.6969L3.49637 47.0094C3.2103 47.1669 2.88906 47.2496 2.5625 47.2497Z" fill="white"/>
</svg>
