<svg width="18" height="16" viewBox="0 0 18 16" fill="none" xmlns="http://www.w3.org/2000/svg">
<path d="M12.75 14.75V13.25C12.75 12.4544 12.4339 11.6913 11.8713 11.1287C11.3087 10.5661 10.5456 10.25 9.75 10.25H3.75C2.95435 10.25 2.19129 10.5661 1.62868 11.1287C1.06607 11.6913 0.75 12.4544 0.75 13.25V14.75M17.25 14.75V13.25C17.2495 12.5853 17.0283 11.9396 16.621 11.4142C16.2138 10.8889 15.6436 10.5137 15 10.3475M12 1.3475C12.6453 1.51273 13.2173 1.88803 13.6257 2.41423C14.0342 2.94044 14.2559 3.58762 14.2559 4.25375C14.2559 4.91988 14.0342 5.56706 13.6257 6.09327C13.2173 6.61947 12.6453 6.99477 12 7.16M9.75 4.25C9.75 5.90685 8.40685 7.25 6.75 7.25C5.09315 7.25 3.75 5.90685 3.75 4.25C3.75 2.59315 5.09315 1.25 6.75 1.25C8.40685 1.25 9.75 2.59315 9.75 4.25Z" stroke="#2D303A" stroke-width="1.5" stroke-linecap="round" stroke-linejoin="round"/>
</svg>
